<mxfile host="app.diagrams.net" agent="Mozilla/5.0 (Macintosh; Intel Mac OS X 10_15_7) AppleWebKit/537.36 (KHTML, like Gecko) Chrome/139.0.0.0 Safari/537.36" version="28.0.9">
  <diagram name="Page-1" id="2YBvvXClWsGukQMizWep">
    <mxGraphModel dx="876" dy="1139" grid="1" gridSize="10" guides="1" tooltips="1" connect="1" arrows="1" fold="1" page="1" pageScale="1" pageWidth="850" pageHeight="1100" math="0" shadow="0">
      <root>
        <mxCell id="0" />
        <mxCell id="1" parent="0" />
        <mxCell id="UcI39DAGngPg29msqAqg-8" value="" style="group" parent="1" vertex="1" connectable="0">
          <mxGeometry x="360" y="20" width="128" height="170" as="geometry" />
        </mxCell>
        <mxCell id="UcI39DAGngPg29msqAqg-7" value="Authentication" style="shape=umlLifeline;perimeter=lifelinePerimeter;whiteSpace=wrap;html=1;container=1;dropTarget=0;collapsible=0;recursiveResize=0;outlineConnect=0;portConstraint=eastwest;newEdgeStyle={&quot;curved&quot;:0,&quot;rounded&quot;:0};" parent="UcI39DAGngPg29msqAqg-8" vertex="1">
          <mxGeometry x="25.6" y="26.842105263157894" width="102.4" height="143.1578947368421" as="geometry" />
        </mxCell>
        <mxCell id="UcI39DAGngPg29msqAqg-2" value="" style="html=1;points=[[0,0,0,0,5],[0,1,0,0,-5],[1,0,0,0,5],[1,1,0,0,-5]];perimeter=orthogonalPerimeter;outlineConnect=0;targetShapes=umlLifeline;portConstraint=eastwest;newEdgeStyle={&quot;curved&quot;:0,&quot;rounded&quot;:0};" parent="UcI39DAGngPg29msqAqg-8" vertex="1">
          <mxGeometry x="71.68" y="80.52631578947368" width="10.24" height="71.57894736842105" as="geometry" />
        </mxCell>
        <mxCell id="UcI39DAGngPg29msqAqg-11" value="" style="group" parent="1" vertex="1" connectable="0">
          <mxGeometry x="150" y="90" width="80" height="430" as="geometry" />
        </mxCell>
        <mxCell id="UcI39DAGngPg29msqAqg-9" value="" style="html=1;points=[[0,0,0,0,5],[0,1,0,0,-5],[1,0,0,0,5],[1,1,0,0,-5]];perimeter=orthogonalPerimeter;outlineConnect=0;targetShapes=umlLifeline;portConstraint=eastwest;newEdgeStyle={&quot;curved&quot;:0,&quot;rounded&quot;:0};" parent="UcI39DAGngPg29msqAqg-11" vertex="1">
          <mxGeometry x="70" width="10" height="429.99999999999994" as="geometry" />
        </mxCell>
        <mxCell id="UcI39DAGngPg29msqAqg-3" value="login" style="html=1;verticalAlign=bottom;endArrow=block;curved=0;rounded=0;entryX=0;entryY=0;entryDx=0;entryDy=5;" parent="1" source="UcI39DAGngPg29msqAqg-9" target="UcI39DAGngPg29msqAqg-2" edge="1">
          <mxGeometry relative="1" as="geometry">
            <mxPoint x="360" y="115" as="sourcePoint" />
          </mxGeometry>
        </mxCell>
        <mxCell id="UcI39DAGngPg29msqAqg-4" value="return" style="html=1;verticalAlign=bottom;endArrow=open;dashed=1;endSize=8;curved=0;rounded=0;exitX=0;exitY=1;exitDx=0;exitDy=-5;" parent="1" source="UcI39DAGngPg29msqAqg-2" target="UcI39DAGngPg29msqAqg-9" edge="1">
          <mxGeometry relative="1" as="geometry">
            <mxPoint x="360" y="185" as="targetPoint" />
          </mxGeometry>
        </mxCell>
        <mxCell id="UcI39DAGngPg29msqAqg-12" value="Income and Asset Statement&lt;div&gt;21P-0969&lt;/div&gt;" style="shape=umlLifeline;perimeter=lifelinePerimeter;whiteSpace=wrap;html=1;container=1;dropTarget=0;collapsible=0;recursiveResize=0;outlineConnect=0;portConstraint=eastwest;newEdgeStyle={&quot;curved&quot;:0,&quot;rounded&quot;:0};fontSize=11;" parent="1" vertex="1">
          <mxGeometry x="180" y="20" width="100" height="510" as="geometry" />
        </mxCell>
        <mxCell id="UcI39DAGngPg29msqAqg-15" value="" style="html=1;points=[[0,0,0,0,5],[0,1,0,0,-5],[1,0,0,0,5],[1,1,0,0,-5]];perimeter=orthogonalPerimeter;outlineConnect=0;targetShapes=umlLifeline;portConstraint=eastwest;newEdgeStyle={&quot;curved&quot;:0,&quot;rounded&quot;:0};" parent="UcI39DAGngPg29msqAqg-12" vertex="1">
          <mxGeometry x="50" y="180" width="10" height="110" as="geometry" />
        </mxCell>
        <mxCell id="UcI39DAGngPg29msqAqg-16" value="enter form data" style="html=1;align=left;spacingLeft=2;endArrow=block;rounded=0;edgeStyle=orthogonalEdgeStyle;curved=0;rounded=0;" parent="UcI39DAGngPg29msqAqg-12" target="UcI39DAGngPg29msqAqg-15" edge="1">
          <mxGeometry relative="1" as="geometry">
            <mxPoint x="60" y="190" as="sourcePoint" />
            <Array as="points">
              <mxPoint x="110" y="190" />
              <mxPoint x="110" y="260" />
            </Array>
          </mxGeometry>
        </mxCell>
        <mxCell id="UcI39DAGngPg29msqAqg-13" value="" style="endArrow=classic;html=1;rounded=0;" parent="1" target="UcI39DAGngPg29msqAqg-9" edge="1">
          <mxGeometry width="50" height="50" relative="1" as="geometry">
            <mxPoint x="90" y="58" as="sourcePoint" />
            <mxPoint x="450" y="310" as="targetPoint" />
            <Array as="points">
              <mxPoint x="150" y="90" />
            </Array>
          </mxGeometry>
        </mxCell>
        <mxCell id="UcI39DAGngPg29msqAqg-14" value="" style="endArrow=classic;html=1;rounded=0;" parent="1" edge="1">
          <mxGeometry width="50" height="50" relative="1" as="geometry">
            <mxPoint x="90" y="60" as="sourcePoint" />
            <mxPoint x="220" y="190" as="targetPoint" />
            <Array as="points">
              <mxPoint x="120" y="180" />
            </Array>
          </mxGeometry>
        </mxCell>
        <mxCell id="UcI39DAGngPg29msqAqg-34" value="Unauthenticated" style="edgeLabel;html=1;align=center;verticalAlign=middle;resizable=0;points=[];" parent="UcI39DAGngPg29msqAqg-14" vertex="1" connectable="0">
          <mxGeometry x="-0.2024" y="1" relative="1" as="geometry">
            <mxPoint as="offset" />
          </mxGeometry>
        </mxCell>
        <mxCell id="UcI39DAGngPg29msqAqg-17" value="" style="html=1;points=[[0,0,0,0,5],[0,1,0,0,-5],[1,0,0,0,5],[1,1,0,0,-5]];perimeter=orthogonalPerimeter;outlineConnect=0;targetShapes=umlLifeline;portConstraint=eastwest;newEdgeStyle={&quot;curved&quot;:0,&quot;rounded&quot;:0};" parent="1" vertex="1">
          <mxGeometry x="590" y="220" width="10" height="80" as="geometry" />
        </mxCell>
        <mxCell id="UcI39DAGngPg29msqAqg-18" value="save in-progress form" style="html=1;verticalAlign=bottom;endArrow=block;curved=0;rounded=0;entryX=0;entryY=0;entryDx=0;entryDy=5;" parent="1" source="UcI39DAGngPg29msqAqg-12" target="UcI39DAGngPg29msqAqg-17" edge="1">
          <mxGeometry relative="1" as="geometry">
            <mxPoint x="520" y="225" as="sourcePoint" />
          </mxGeometry>
        </mxCell>
        <mxCell id="UcI39DAGngPg29msqAqg-19" value="return" style="html=1;verticalAlign=bottom;endArrow=open;dashed=1;endSize=8;curved=0;rounded=0;exitX=0;exitY=1;exitDx=0;exitDy=-5;" parent="1" source="UcI39DAGngPg29msqAqg-17" target="UcI39DAGngPg29msqAqg-15" edge="1">
          <mxGeometry relative="1" as="geometry">
            <mxPoint x="520" y="295" as="targetPoint" />
          </mxGeometry>
        </mxCell>
        <mxCell id="UcI39DAGngPg29msqAqg-20" value="" style="html=1;points=[[0,0,0,0,5],[0,1,0,0,-5],[1,0,0,0,5],[1,1,0,0,-5]];perimeter=orthogonalPerimeter;outlineConnect=0;targetShapes=umlLifeline;portConstraint=eastwest;newEdgeStyle={&quot;curved&quot;:0,&quot;rounded&quot;:0};" parent="1" vertex="1">
          <mxGeometry x="590" y="330" width="10" height="30" as="geometry" />
        </mxCell>
        <mxCell id="UcI39DAGngPg29msqAqg-21" value="submit income and assets form" style="html=1;verticalAlign=bottom;endArrow=block;curved=0;rounded=0;entryX=0;entryY=0;entryDx=0;entryDy=5;" parent="1" target="UcI39DAGngPg29msqAqg-20" edge="1">
          <mxGeometry relative="1" as="geometry">
            <mxPoint x="230" y="335" as="sourcePoint" />
          </mxGeometry>
        </mxCell>
        <mxCell id="UcI39DAGngPg29msqAqg-25" value="" style="html=1;points=[[0,0,0,0,5],[0,1,0,0,-5],[1,0,0,0,5],[1,1,0,0,-5]];perimeter=orthogonalPerimeter;outlineConnect=0;targetShapes=umlLifeline;portConstraint=eastwest;newEdgeStyle={&quot;curved&quot;:0,&quot;rounded&quot;:0};" parent="1" vertex="1">
          <mxGeometry x="230" y="430" width="10" height="40" as="geometry" />
        </mxCell>
        <mxCell id="UcI39DAGngPg29msqAqg-26" value="polling saved claim" style="html=1;align=left;spacingLeft=2;endArrow=block;rounded=0;edgeStyle=orthogonalEdgeStyle;curved=0;rounded=0;" parent="1" source="UcI39DAGngPg29msqAqg-9" target="UcI39DAGngPg29msqAqg-25" edge="1">
          <mxGeometry relative="1" as="geometry">
            <mxPoint x="235" y="400" as="sourcePoint" />
            <Array as="points">
              <mxPoint x="265" y="384" />
              <mxPoint x="265" y="450" />
            </Array>
          </mxGeometry>
        </mxCell>
        <mxCell id="UcI39DAGngPg29msqAqg-30" value="" style="group" parent="1" vertex="1" connectable="0">
          <mxGeometry x="520" y="380" width="80" height="80" as="geometry" />
        </mxCell>
        <mxCell id="UcI39DAGngPg29msqAqg-27" value="" style="html=1;points=[[0,0,0,0,5],[0,1,0,0,-5],[1,0,0,0,5],[1,1,0,0,-5]];perimeter=orthogonalPerimeter;outlineConnect=0;targetShapes=umlLifeline;portConstraint=eastwest;newEdgeStyle={&quot;curved&quot;:0,&quot;rounded&quot;:0};" parent="UcI39DAGngPg29msqAqg-30" vertex="1">
          <mxGeometry x="70" width="10" height="80" as="geometry" />
        </mxCell>
        <mxCell id="UcI39DAGngPg29msqAqg-28" value="" style="html=1;verticalAlign=bottom;endArrow=block;curved=0;rounded=0;entryX=0;entryY=0;entryDx=0;entryDy=5;" parent="1" source="UcI39DAGngPg29msqAqg-9" target="UcI39DAGngPg29msqAqg-27" edge="1">
          <mxGeometry relative="1" as="geometry">
            <mxPoint x="270" y="385" as="sourcePoint" />
          </mxGeometry>
        </mxCell>
        <mxCell id="UcI39DAGngPg29msqAqg-29" value="return" style="html=1;verticalAlign=bottom;endArrow=open;dashed=1;endSize=8;curved=0;rounded=0;exitX=0;exitY=1;exitDx=0;exitDy=-5;" parent="1" source="UcI39DAGngPg29msqAqg-27" target="UcI39DAGngPg29msqAqg-25" edge="1">
          <mxGeometry relative="1" as="geometry">
            <mxPoint x="520" y="455" as="targetPoint" />
          </mxGeometry>
        </mxCell>
        <mxCell id="UcI39DAGngPg29msqAqg-31" value="" style="html=1;points=[[0,0,0,0,5],[0,1,0,0,-5],[1,0,0,0,5],[1,1,0,0,-5]];perimeter=orthogonalPerimeter;outlineConnect=0;targetShapes=umlLifeline;portConstraint=eastwest;newEdgeStyle={&quot;curved&quot;:0,&quot;rounded&quot;:0};" parent="1" vertex="1">
          <mxGeometry x="670" y="340" width="10" height="80" as="geometry" />
        </mxCell>
        <mxCell id="UcI39DAGngPg29msqAqg-32" value="sidekiq" style="html=1;verticalAlign=bottom;endArrow=block;curved=0;rounded=0;entryX=0;entryY=0;entryDx=0;entryDy=5;" parent="1" target="UcI39DAGngPg29msqAqg-31" edge="1">
          <mxGeometry relative="1" as="geometry">
            <mxPoint x="600" y="345" as="sourcePoint" />
          </mxGeometry>
        </mxCell>
        <mxCell id="UcI39DAGngPg29msqAqg-33" value="return" style="html=1;verticalAlign=bottom;endArrow=open;dashed=1;endSize=8;curved=0;rounded=0;exitX=0;exitY=1;exitDx=0;exitDy=-5;" parent="1" source="UcI39DAGngPg29msqAqg-31" edge="1">
          <mxGeometry relative="1" as="geometry">
            <mxPoint x="600" y="415" as="targetPoint" />
          </mxGeometry>
        </mxCell>
        <mxCell id="UcI39DAGngPg29msqAqg-35" value="vets-api" style="shape=umlLifeline;perimeter=lifelinePerimeter;whiteSpace=wrap;html=1;container=1;dropTarget=0;collapsible=0;recursiveResize=0;outlineConnect=0;portConstraint=eastwest;newEdgeStyle={&quot;curved&quot;:0,&quot;rounded&quot;:0};" parent="1" vertex="1">
          <mxGeometry x="590" y="20" width="100" height="470" as="geometry" />
        </mxCell>
        <mxCell id="UcI39DAGngPg29msqAqg-36" value="" style="shape=umlLifeline;perimeter=lifelinePerimeter;whiteSpace=wrap;html=1;container=1;dropTarget=0;collapsible=0;recursiveResize=0;outlineConnect=0;portConstraint=eastwest;newEdgeStyle={&quot;curved&quot;:0,&quot;rounded&quot;:0};participant=umlActor;" parent="1" vertex="1">
          <mxGeometry x="50" y="40" width="20" height="520" as="geometry" />
        </mxCell>
        <mxCell id="UcI39DAGngPg29msqAqg-47" value="" style="html=1;points=[[0,0,0,0,5],[0,1,0,0,-5],[1,0,0,0,5],[1,1,0,0,-5]];perimeter=orthogonalPerimeter;outlineConnect=0;targetShapes=umlLifeline;portConstraint=eastwest;newEdgeStyle={&quot;curved&quot;:0,&quot;rounded&quot;:0};" parent="UcI39DAGngPg29msqAqg-36" vertex="1">
          <mxGeometry y="170" width="10" height="80" as="geometry" />
        </mxCell>
        <mxCell id="UcI39DAGngPg29msqAqg-49" value="return" style="html=1;verticalAlign=bottom;endArrow=open;dashed=1;endSize=8;curved=0;rounded=0;exitX=1;exitY=1;exitDx=0;exitDy=-5;" parent="UcI39DAGngPg29msqAqg-36" source="UcI39DAGngPg29msqAqg-47" edge="1">
          <mxGeometry relative="1" as="geometry">
            <mxPoint x="170" y="245" as="targetPoint" />
          </mxGeometry>
        </mxCell>
        <mxCell id="UcI39DAGngPg29msqAqg-37" value="confirmation page" style="html=1;verticalAlign=bottom;endArrow=open;dashed=1;endSize=8;curved=0;rounded=0;" parent="1" target="UcI39DAGngPg29msqAqg-36" edge="1">
          <mxGeometry relative="1" as="geometry">
            <mxPoint x="220" y="500" as="sourcePoint" />
            <mxPoint x="140" y="500" as="targetPoint" />
          </mxGeometry>
        </mxCell>
        <mxCell id="UcI39DAGngPg29msqAqg-38" value="" style="html=1;points=[[0,0,0,0,5],[0,1,0,0,-5],[1,0,0,0,5],[1,1,0,0,-5]];perimeter=orthogonalPerimeter;outlineConnect=0;targetShapes=umlLifeline;portConstraint=eastwest;newEdgeStyle={&quot;curved&quot;:0,&quot;rounded&quot;:0};" parent="1" vertex="1">
          <mxGeometry x="775" y="340" width="10" height="80" as="geometry" />
        </mxCell>
        <mxCell id="UcI39DAGngPg29msqAqg-39" value="dispatch" style="html=1;verticalAlign=bottom;endArrow=block;curved=0;rounded=0;entryX=0;entryY=0;entryDx=0;entryDy=5;" parent="1" target="UcI39DAGngPg29msqAqg-38" edge="1">
          <mxGeometry relative="1" as="geometry">
            <mxPoint x="680" y="345" as="sourcePoint" />
          </mxGeometry>
        </mxCell>
        <mxCell id="UcI39DAGngPg29msqAqg-40" value="return" style="html=1;verticalAlign=bottom;endArrow=open;dashed=1;endSize=8;curved=0;rounded=0;" parent="1" source="UcI39DAGngPg29msqAqg-38" edge="1">
          <mxGeometry relative="1" as="geometry">
            <mxPoint x="680" y="415" as="targetPoint" />
          </mxGeometry>
        </mxCell>
        <mxCell id="UcI39DAGngPg29msqAqg-41" value="Lighthouse API" style="shape=umlLifeline;perimeter=lifelinePerimeter;whiteSpace=wrap;html=1;container=1;dropTarget=0;collapsible=0;recursiveResize=0;outlineConnect=0;portConstraint=eastwest;newEdgeStyle={&quot;curved&quot;:0,&quot;rounded&quot;:0};" parent="1" vertex="1">
          <mxGeometry x="730" y="260" width="100" height="200" as="geometry" />
        </mxCell>
        <mxCell id="UcI39DAGngPg29msqAqg-42" value="" style="swimlane;startSize=0;" parent="1" vertex="1">
          <mxGeometry x="550" y="200" width="150" height="280" as="geometry" />
        </mxCell>
        <mxCell id="UcI39DAGngPg29msqAqg-43" value="" style="html=1;points=[[0,0,0,0,5],[0,1,0,0,-5],[1,0,0,0,5],[1,1,0,0,-5]];perimeter=orthogonalPerimeter;outlineConnect=0;targetShapes=umlLifeline;portConstraint=eastwest;newEdgeStyle={&quot;curved&quot;:0,&quot;rounded&quot;:0};" parent="1" vertex="1">
          <mxGeometry x="430" y="600" width="10" height="30" as="geometry" />
        </mxCell>
        <mxCell id="UcI39DAGngPg29msqAqg-44" value="dispatch" style="html=1;verticalAlign=bottom;startArrow=oval;endArrow=block;startSize=8;curved=0;rounded=0;" parent="1" source="UcI39DAGngPg29msqAqg-12" target="UcI39DAGngPg29msqAqg-43" edge="1">
          <mxGeometry relative="1" as="geometry">
            <mxPoint x="360" y="535" as="sourcePoint" />
            <Array as="points">
              <mxPoint x="310" y="480" />
              <mxPoint x="310" y="600" />
            </Array>
          </mxGeometry>
        </mxCell>
        <mxCell id="UcI39DAGngPg29msqAqg-45" value="Error monitoring" style="shape=umlLifeline;perimeter=lifelinePerimeter;whiteSpace=wrap;html=1;container=1;dropTarget=0;collapsible=0;recursiveResize=0;outlineConnect=0;portConstraint=eastwest;newEdgeStyle={&quot;curved&quot;:0,&quot;rounded&quot;:0};" parent="1" vertex="1">
          <mxGeometry x="385" y="540" width="100" height="120" as="geometry" />
        </mxCell>
        <mxCell id="UcI39DAGngPg29msqAqg-46" value="dispatch" style="html=1;verticalAlign=bottom;startArrow=oval;startFill=1;endArrow=block;startSize=8;curved=0;rounded=0;" parent="1" source="UcI39DAGngPg29msqAqg-35" target="UcI39DAGngPg29msqAqg-45" edge="1">
          <mxGeometry width="60" relative="1" as="geometry">
            <mxPoint x="390" y="480" as="sourcePoint" />
            <mxPoint x="530" y="620" as="targetPoint" />
            <Array as="points">
              <mxPoint x="640" y="600" />
            </Array>
          </mxGeometry>
        </mxCell>
        <mxCell id="UcI39DAGngPg29msqAqg-48" value="advance form section" style="html=1;verticalAlign=bottom;endArrow=block;curved=0;rounded=0;entryX=1;entryY=0;entryDx=0;entryDy=5;" parent="1" source="UcI39DAGngPg29msqAqg-9" target="UcI39DAGngPg29msqAqg-47" edge="1">
          <mxGeometry relative="1" as="geometry">
            <mxPoint x="130" y="220" as="sourcePoint" />
          </mxGeometry>
        </mxCell>
      </root>
    </mxGraphModel>
  </diagram>
</mxfile>
